<?xml version="1.0" standalone="no"?>
<!DOCTYPE svg PUBLIC "-//W3C//DTD SVG 20010904//EN"
 "http://www.w3.org/TR/2001/REC-SVG-20010904/DTD/svg10.dtd">
<svg version="1.0" xmlns="http://www.w3.org/2000/svg"
 width="656.000000pt" height="656.000000pt" viewBox="0 0 656.000000 656.000000"
 preserveAspectRatio="xMidYMid meet">
<metadata>
Created by potrace 1.11, written by Peter Selinger 2001-2013
</metadata>
<g transform="translate(0.000000,656.000000) scale(0.100000,-0.100000)"
fill="#000000" stroke="none">
<path d="M3080 6543 c-30 -8 -58 -20 -62 -26 -4 -7 -8 -8 -8 -4 0 9 -59 -25
-94 -53 -72 -58 -128 -144 -152 -232 -23 -88 -4 -221 41 -290 14 -21 25 -40
25 -42 0 -12 75 -86 87 -86 7 0 13 -4 13 -8 0 -4 14 -16 30 -25 17 -10 30 -15
30 -11 0 4 7 -1 15 -12 8 -10 15 -15 15 -10 0 5 6 4 13 -1 6 -6 23 -13 37 -16
l26 -6 -1 -218 0 -218 -252 -1 c-139 -1 -256 -3 -260 -4 -5 -1 -12 -1 -18 0
-32 9 -605 4 -605 -5 0 -7 -3 -7 -8 0 -5 7 -141 11 -402 10 l-395 0 0 -392 c0
-216 -2 -393 -5 -393 -3 0 -16 20 -29 45 -13 25 -28 45 -33 45 -5 0 -7 4 -4 9
6 9 -90 111 -104 111 -5 0 -15 7 -24 15 -13 13 -16 11 -26 -21 -7 -19 -13 -41
-14 -47 -1 -7 -5 -18 -10 -25 -5 -9 7 -27 37 -55 53 -50 99 -124 115 -187 15
-60 26 -123 23 -134 -1 -5 -4 -34 -7 -65 -6 -75 -9 -91 -23 -126 -7 -16 -12
-32 -11 -34 1 -2 -3 -7 -8 -10 -6 -3 -12 -13 -14 -21 -5 -21 -138 -151 -138
-135 0 3 -8 1 -19 -4 -10 -6 -35 -11 -55 -13 l-36 -2 6 -65 c3 -36 8 -69 11
-73 13 -22 193 28 193 54 0 4 6 8 13 8 17 0 107 89 107 107 0 7 5 13 10 13 6
0 10 7 10 15 0 8 5 15 10 15 6 0 10 6 10 14 0 8 3 17 7 19 5 3 7 -415 6 -928
l-3 -933 436 0 c240 0 438 -3 442 -7 3 -3 6 -472 7 -1043 l0 -1037 1238 -2
1237 -3 0 1045 0 1045 28 1 c15 0 217 0 450 0 l423 1 -1 36 c-1 27 -2 370 -1
467 0 6 1 121 1 257 1 136 -1 252 -5 258 -3 5 -3 10 2 10 9 0 8 603 -1 626 -3
8 -2 14 2 14 4 0 6 31 4 70 -2 38 -1 70 3 70 9 0 36 -28 33 -34 -4 -6 55 -85
63 -86 3 0 20 -14 38 -30 29 -28 67 -50 82 -46 3 0 13 -4 21 -11 8 -7 39 -15
70 -19 l55 -6 7 67 c4 37 5 70 2 72 -2 2 -19 7 -38 10 -51 7 -121 45 -151 81
-10 12 -25 29 -33 36 -8 8 -14 19 -14 24 0 5 -6 15 -14 21 -12 10 -24 44 -43
121 -2 8 -6 42 -9 75 -3 33 -7 66 -9 73 -2 6 -1 12 3 12 4 0 9 12 10 28 3 43
10 69 23 94 7 13 11 23 9 23 -2 0 6 18 18 41 22 43 62 90 99 115 l22 15 -18
59 c-10 33 -23 61 -29 63 -7 2 -40 -25 -74 -60 -74 -75 -80 -83 -106 -134
l-21 -39 0 403 c0 222 -2 407 -6 410 -9 9 -126 9 -131 0 -3 -5 -11 -5 -17 -1
-17 11 -57 11 -63 1 -3 -4 -11 -5 -17 -1 -16 10 -257 11 -264 1 -2 -5 -10 -5
-16 -1 -19 12 -331 10 -339 -2 -5 -6 -8 -6 -8 0 0 12 -558 14 -576 3 -6 -4
-14 -4 -18 0 -4 4 -148 7 -319 7 l-312 0 -1 87 c-1 47 -3 92 -6 100 -3 7 -2
22 2 33 4 11 3 30 -1 43 -5 13 -6 21 -1 19 4 -3 6 28 5 68 -1 47 3 77 10 83 7
5 38 19 70 32 32 12 71 36 88 51 17 16 33 29 36 29 11 0 63 67 87 111 46 84
63 202 41 287 -4 15 -9 50 -10 79 -5 66 -28 115 -78 165 -52 51 -92 67 -190
73 -175 12 -243 12 -297 -2z"/>
</g>
</svg>
